<svg xmlns="http://www.w3.org/2000/svg" viewBox="0 0 300 500" width="300" height="500">
  <rect width="300" height="500" fill="#1a1a2e" rx="12"/>
  <rect x="20" y="20" width="260" height="180" fill="#16213e" rx="8"/>
  <rect x="40" y="40" width="220" height="40" fill="#0f3460" rx="4"/>
  <circle cx="65" cy="60" r="8" fill="#e94560"/>
  <circle cx="90" cy="60" r="8" fill="#e94560"/>
  <circle cx="115" cy="60" r="8" fill="#e94560"/>
  <rect x="75" y="100" width="150" height="6" fill="#e94560" rx="3"/>
  <rect x="75" y="115" width="120" height="6" fill="#533483" rx="3"/>
  <rect x="75" y="130" width="140" height="6" fill="#533483" rx="3"/>
  <rect x="75" y="145" width="100" height="6" fill="#533483" rx="3"/>
  <rect x="75" y="165" width="160" height="4" fill="#e94560" rx="2"/>
  <rect x="75" y="175" width="130" height="4" fill="#e94560" rx="2"/>
  <rect x="20" y="220" width="260" height="260" fill="#16213e" rx="8"/>
  <rect x="40" y="240" width="220" height="3" fill="#533483" rx="1.5"/>
  <rect x="40" y="255" width="180" height="3" fill="#533483" rx="1.5"/>
  <rect x="40" y="270" width="200" height="3" fill="#533483" rx="1.5"/>
  <rect x="40" y="295" width="220" height="2" fill="#e94560" rx="1"/>
  <rect x="40" y="310" width="160" height="2" fill="#e94560" rx="1"/>
  <rect x="40" y="325" width="190" height="2" fill="#e94560" rx="1"/>
  <rect x="40" y="350" width="220" height="3" fill="#533483" rx="1.5"/>
  <rect x="40" y="365" width="140" height="3" fill="#533483" rx="1.5"/>
  <rect x="40" y="380" width="170" height="3" fill="#533483" rx="1.5"/>
  <rect x="40" y="405" width="220" height="2" fill="#e94560" rx="1"/>
  <rect x="40" y="420" width="150" height="2" fill="#e94560" rx="1"/>
  <rect x="40" y="435" width="180" height="2" fill="#e94560" rx="1"/>
  <rect x="40" y="455" width="220" height="3" fill="#0f3460" rx="1.5"/>
  <circle cx="55" cy="465" r="4" fill="#e94560"/>
  <rect x="70" y="460" width="100" height="3" fill="#533483" rx="1.5"/>
  <rect x="70" y="468" width="80" height="2" fill="#533483" rx="1"/>
</svg>